<svg xmlns="http://www.w3.org/2000/svg" xmlns:xlink="http://www.w3.org/1999/xlink" version="1.1" id="Layer_1" x="0px" y="0px" width="100px" height="100px" viewBox="0 0 100 100" enable-background="new 0 0 100 100" xml:space="preserve">
<path d="M100,5.555H76.389V4.167C76.389,1.865,74.522,0,72.222,0c-2.3,0-4.166,1.865-4.166,4.167v1.389h-36.11V4.167  C31.945,1.865,30.08,0,27.779,0c-2.301,0-4.167,1.865-4.167,4.167v1.389H0v8.333h23.612v1.389c0,2.302,1.865,4.167,4.167,4.167  c2.301,0,4.167-1.865,4.167-4.167v-1.389h36.11v1.389c0,2.302,1.866,4.167,4.166,4.167c2.301,0,4.167-1.865,4.167-4.167v-1.389H100  V5.555z"/>
<path d="M0,22.222V100h100V22.222H0z M31.86,33.417c-0.813-0.814-0.813-2.132,0-2.946c0.814-0.814,2.132-0.814,2.946,0l4.083,4.083  l4.083-4.083c0.813-0.814,2.132-0.814,2.946,0c0.814,0.813,0.814,2.132,0,2.946L41.835,37.5l4.083,4.083  c0.814,0.814,0.814,2.132,0,2.946c-0.407,0.407-0.94,0.61-1.473,0.61c-0.533,0-1.066-0.204-1.473-0.61l-4.083-4.083l-4.083,4.083  c-0.407,0.407-0.94,0.61-1.473,0.61s-1.066-0.204-1.473-0.61c-0.813-0.814-0.813-2.132,0-2.946l4.083-4.083L31.86,33.417z   M9.639,33.417c-0.814-0.814-0.814-2.132,0-2.946c0.813-0.814,2.132-0.814,2.946,0l4.083,4.083l4.083-4.083  c0.814-0.814,2.132-0.814,2.946,0c0.814,0.813,0.814,2.132,0,2.946L19.613,37.5l4.083,4.083c0.814,0.814,0.814,2.132,0,2.946  c-0.407,0.407-0.94,0.61-1.473,0.61c-0.533,0-1.066-0.204-1.473-0.61l-4.083-4.083l-4.083,4.083c-0.407,0.407-0.94,0.61-1.473,0.61  c-0.533,0-1.066-0.204-1.473-0.61c-0.814-0.814-0.814-2.132,0-2.946l4.083-4.083L9.639,33.417z M25,91.666H8.333V75H25V91.666z   M25,69.444H8.333V52.777H25V69.444z M45.917,87.416c0.814,0.813,0.814,2.132,0,2.945c-0.407,0.407-0.94,0.61-1.473,0.61  c-0.533,0-1.066-0.203-1.473-0.61l-4.083-4.082l-4.083,4.082c-0.407,0.407-0.94,0.61-1.473,0.61s-1.066-0.203-1.473-0.61  c-0.813-0.813-0.813-2.132,0-2.945l4.083-4.083L31.86,79.25c-0.813-0.814-0.813-2.133,0-2.946c0.814-0.813,2.132-0.813,2.946,0  l4.083,4.082l4.083-4.082c0.813-0.813,2.132-0.813,2.946,0s0.814,2.132,0,2.946l-4.083,4.082L45.917,87.416z M47.222,69.444H30.556  V52.777h16.667V69.444z M68.14,87.416c0.813,0.813,0.813,2.132,0,2.945c-0.407,0.407-0.94,0.61-1.473,0.61  c-0.533,0-1.066-0.203-1.474-0.61l-4.082-4.082l-4.083,4.082c-0.406,0.407-0.939,0.61-1.473,0.61s-1.066-0.203-1.473-0.61  c-0.814-0.813-0.814-2.132,0-2.945l4.082-4.083l-4.082-4.082c-0.814-0.814-0.814-2.133,0-2.946c0.813-0.813,2.132-0.813,2.945,0  l4.083,4.082l4.082-4.082c0.814-0.813,2.133-0.813,2.946,0s0.813,2.132,0,2.946l-4.083,4.082L68.14,87.416z M69.444,69.444H52.778  V52.777h16.666V69.444z M69.444,47.222H52.778V30.555h16.666V47.222z M90.361,87.416c0.814,0.813,0.814,2.132,0,2.945  c-0.406,0.407-0.939,0.61-1.473,0.61s-1.066-0.203-1.473-0.61l-4.083-4.082l-4.082,4.082c-0.407,0.407-0.94,0.61-1.474,0.61  c-0.532,0-1.065-0.203-1.473-0.61c-0.813-0.813-0.813-2.132,0-2.945l4.083-4.083l-4.083-4.082c-0.813-0.814-0.813-2.133,0-2.946  s2.132-0.813,2.946,0l4.082,4.082l4.083-4.082c0.813-0.813,2.132-0.813,2.945,0c0.814,0.813,0.814,2.132,0,2.946l-4.082,4.082  L90.361,87.416z M91.666,69.444H75V52.777h16.666V69.444z M91.666,47.222H75V30.555h16.666V47.222z"/>
</svg>