<svg xmlns="http://www.w3.org/2000/svg" xmlns:xlink="http://www.w3.org/1999/xlink" version="1.1" x="0px" y="0px" width="100px" height="100px" viewBox="0 0 100 100" enable-background="new 0 0 100 100" xml:space="preserve">
	<circle stroke="#000000" stroke-miterlimit="10" cx="53.218" cy="24.051" r="22.953"/>
	<path stroke="#000000" stroke-miterlimit="10" d="M84.333,99.818c0-12.07-0.516-25.323-4.243-34.048   c-4.848-11.347-18.089-15.888-26.872-15.888s-21.683,5.933-26.872,17.024c-4.039,8.633-4.242,20.842-4.243,32.912"/>
	<rect x="0.5" y="86.5" stroke="#000000" stroke-miterlimit="10" width="99" height="13"/>
	<path stroke="#000000" stroke-miterlimit="10" d="M17.5,52.094c0,4.091-2.423,7.406-5.412,7.406h-0.176   c-2.989,0-5.412-3.315-5.412-7.406V14.906c0-4.091,2.423-7.406,5.412-7.406h0.176c2.989,0,5.412,3.315,5.412,7.406V52.094z"/>
	<path stroke="#000000" stroke-miterlimit="10" d="M33.48,65.269c-1.806,3.258-5.442,4.692-8.121,3.207L9.191,59.513   c-2.68-1.486-3.389-5.33-1.583-8.584l0,0c1.805-3.259,5.439-4.694,8.119-3.21l16.169,8.962   C34.575,58.168,35.284,62.012,33.48,65.269L33.48,65.269z"/>
</svg>