<svg xmlns="http://www.w3.org/2000/svg" xmlns:xlink="http://www.w3.org/1999/xlink" version="1.1" id="Layer_2" x="0px" y="0px" width="100px" height="100px" viewBox="0 0 100 100" enable-background="new 0 0 100 100" xml:space="preserve">
<path fill="#000000" d="M75.528,6.025c0,1.352-1.098,2.447-2.449,2.447h-46.16c-1.353,0-2.447-1.095-2.447-2.447l0,0  c0-1.351,1.095-2.446,2.447-2.446h46.16C74.431,3.579,75.528,4.675,75.528,6.025L75.528,6.025z"/>
<path fill="#000000" d="M75.528,93.971c0,1.353-1.098,2.449-2.449,2.449h-46.16c-1.353,0-2.447-1.097-2.447-2.449l0,0  c0-1.348,1.095-2.445,2.447-2.445h46.16C74.431,91.525,75.528,92.623,75.528,93.971L75.528,93.971z"/>
<path fill="#000000" d="M70.496,30.249c0.802-0.803,1.202-1.856,1.202-2.91h0.004v-15.86H28.298v15.86c0,1.053,0.4,2.106,1.202,2.91  l17.589,19.505c0.094,0.094,0.201,0.164,0.302,0.246c-0.101,0.083-0.208,0.153-0.302,0.247L29.5,69.754  c-0.802,0.802-1.202,1.857-1.202,2.909v15.859h43.404V72.663h-0.004c0-1.052-0.4-2.107-1.202-2.909L52.907,50.247  c-0.094-0.094-0.201-0.164-0.302-0.247c0.101-0.083,0.208-0.152,0.302-0.246L70.496,30.249z"/>
</svg>